<svg xmlns="http://www.w3.org/2000/svg" version="1.1" xmlns:xlink="http://www.w3.org/1999/xlink" xmlns:svgjs="http://svgjs.com/svgjs" width="1440" height="560" preserveAspectRatio="none" viewBox="0 0 1440 560"><g mask="url(&quot;#SvgjsMask1012&quot;)" fill="none"><rect width="1440" height="560" x="0" y="0" fill="rgba(77, 110, 208, 1)"></rect><path d="M739 387L738 614" stroke-width="10" stroke="url(#SvgjsLinearGradient1013)" stroke-linecap="round" class="Up"></path><path d="M182 361L181 756" stroke-width="10" stroke="url(#SvgjsLinearGradient1014)" stroke-linecap="round" class="Down"></path><path d="M798 268L797 583" stroke-width="6" stroke="url(#SvgjsLinearGradient1014)" stroke-linecap="round" class="Down"></path><path d="M784 384L783 87" stroke-width="10" stroke="url(#SvgjsLinearGradient1013)" stroke-linecap="round" class="Up"></path><path d="M579 105L578 -290" stroke-width="6" stroke="url(#SvgjsLinearGradient1014)" stroke-linecap="round" class="Down"></path><path d="M344 485L343 874" stroke-width="8" stroke="url(#SvgjsLinearGradient1013)" stroke-linecap="round" class="Up"></path><path d="M75 501L74 789" stroke-width="8" stroke="url(#SvgjsLinearGradient1013)" stroke-linecap="round" class="Up"></path><path d="M54 101L53 -302" stroke-width="6" stroke="url(#SvgjsLinearGradient1013)" stroke-linecap="round" class="Up"></path><path d="M484 447L483 849" stroke-width="10" stroke="url(#SvgjsLinearGradient1013)" stroke-linecap="round" class="Up"></path><path d="M30 44L29 311" stroke-width="6" stroke="url(#SvgjsLinearGradient1013)" stroke-linecap="round" class="Up"></path><path d="M978 4L977 382" stroke-width="6" stroke="url(#SvgjsLinearGradient1014)" stroke-linecap="round" class="Down"></path><path d="M603 207L602 48" stroke-width="6" stroke="url(#SvgjsLinearGradient1013)" stroke-linecap="round" class="Up"></path><path d="M1394 462L1393 298" stroke-width="10" stroke="url(#SvgjsLinearGradient1013)" stroke-linecap="round" class="Up"></path><path d="M138 39L137 -216" stroke-width="10" stroke="url(#SvgjsLinearGradient1014)" stroke-linecap="round" class="Down"></path><path d="M405 196L404 -166" stroke-width="6" stroke="url(#SvgjsLinearGradient1013)" stroke-linecap="round" class="Up"></path><path d="M1068 542L1067 379" stroke-width="8" stroke="url(#SvgjsLinearGradient1013)" stroke-linecap="round" class="Up"></path><path d="M361 428L360 791" stroke-width="10" stroke="url(#SvgjsLinearGradient1014)" stroke-linecap="round" class="Down"></path><path d="M1434 339L1433 738" stroke-width="10" stroke="url(#SvgjsLinearGradient1014)" stroke-linecap="round" class="Down"></path><path d="M1022 535L1021 257" stroke-width="8" stroke="url(#SvgjsLinearGradient1014)" stroke-linecap="round" class="Down"></path><path d="M105 523L104 939" stroke-width="6" stroke="url(#SvgjsLinearGradient1014)" stroke-linecap="round" class="Down"></path><path d="M641 180L640 -47" stroke-width="6" stroke="url(#SvgjsLinearGradient1013)" stroke-linecap="round" class="Up"></path><path d="M261 379L260 524" stroke-width="8" stroke="url(#SvgjsLinearGradient1014)" stroke-linecap="round" class="Down"></path><path d="M762 86L761 240" stroke-width="10" stroke="url(#SvgjsLinearGradient1013)" stroke-linecap="round" class="Up"></path><path d="M995 434L994 272" stroke-width="10" stroke="url(#SvgjsLinearGradient1013)" stroke-linecap="round" class="Up"></path><path d="M383 311L382 -2" stroke-width="6" stroke="url(#SvgjsLinearGradient1014)" stroke-linecap="round" class="Down"></path><path d="M1150 165L1149 514" stroke-width="6" stroke="url(#SvgjsLinearGradient1013)" stroke-linecap="round" class="Up"></path><path d="M474 87L473 286" stroke-width="8" stroke="url(#SvgjsLinearGradient1013)" stroke-linecap="round" class="Up"></path><path d="M391 366L390 34" stroke-width="8" stroke="url(#SvgjsLinearGradient1014)" stroke-linecap="round" class="Down"></path><path d="M302 114L301 491" stroke-width="8" stroke="url(#SvgjsLinearGradient1014)" stroke-linecap="round" class="Down"></path><path d="M944 343L943 35" stroke-width="10" stroke="url(#SvgjsLinearGradient1013)" stroke-linecap="round" class="Up"></path><path d="M651 407L650 9" stroke-width="6" stroke="url(#SvgjsLinearGradient1013)" stroke-linecap="round" class="Up"></path><path d="M760 309L759 96" stroke-width="6" stroke="url(#SvgjsLinearGradient1014)" stroke-linecap="round" class="Down"></path><path d="M746 329L745 -62" stroke-width="10" stroke="url(#SvgjsLinearGradient1013)" stroke-linecap="round" class="Up"></path><path d="M693 391L692 735" stroke-width="6" stroke="url(#SvgjsLinearGradient1014)" stroke-linecap="round" class="Down"></path><path d="M363 308L362 131" stroke-width="8" stroke="url(#SvgjsLinearGradient1013)" stroke-linecap="round" class="Up"></path><path d="M856 437L855 702" stroke-width="10" stroke="url(#SvgjsLinearGradient1014)" stroke-linecap="round" class="Down"></path></g><defs><mask id="SvgjsMask1012"><rect width="1440" height="560" fill="#ffffff"></rect></mask><linearGradient x1="0%" y1="100%" x2="0%" y2="0%" id="SvgjsLinearGradient1013"><stop stop-color="rgba(52, 132, 227, 0)" offset="0"></stop><stop stop-color="rgba(52, 132, 227, 1)" offset="1"></stop></linearGradient><linearGradient x1="0%" y1="0%" x2="0%" y2="100%" id="SvgjsLinearGradient1014"><stop stop-color="rgba(52, 132, 227, 0)" offset="0"></stop><stop stop-color="rgba(52, 132, 227, 1)" offset="1"></stop></linearGradient></defs></svg>