<svg xmlns="http://www.w3.org/2000/svg" version="1.1" xmlns:xlink="http://www.w3.org/1999/xlink" xmlns:svgjs="http://svgjs.com/svgjs" width="1440" height="560" preserveAspectRatio="none" viewBox="0 0 1440 560"><g mask="url(&quot;#SvgjsMask1006&quot;)" fill="none"><rect width="1440" height="560" x="0" y="0" fill="rgba(52, 135, 224, 1)"></rect><path d="M1420 330L1419 -50" stroke-width="10" stroke="url(#SvgjsLinearGradient1007)" stroke-linecap="round" class="Up"></path><path d="M878 493L877 258" stroke-width="6" stroke="url(#SvgjsLinearGradient1008)" stroke-linecap="round" class="Down"></path><path d="M478 431L477 31" stroke-width="8" stroke="url(#SvgjsLinearGradient1007)" stroke-linecap="round" class="Up"></path><path d="M1119 322L1118 505" stroke-width="10" stroke="url(#SvgjsLinearGradient1007)" stroke-linecap="round" class="Up"></path><path d="M974 294L973 67" stroke-width="6" stroke="url(#SvgjsLinearGradient1007)" stroke-linecap="round" class="Up"></path><path d="M673 139L672 -84" stroke-width="6" stroke="url(#SvgjsLinearGradient1008)" stroke-linecap="round" class="Down"></path><path d="M865 409L864 791" stroke-width="10" stroke="url(#SvgjsLinearGradient1007)" stroke-linecap="round" class="Up"></path><path d="M963 281L962 472" stroke-width="10" stroke="url(#SvgjsLinearGradient1008)" stroke-linecap="round" class="Down"></path><path d="M614 541L613 400" stroke-width="6" stroke="url(#SvgjsLinearGradient1007)" stroke-linecap="round" class="Up"></path><path d="M1119 548L1118 848" stroke-width="8" stroke="url(#SvgjsLinearGradient1007)" stroke-linecap="round" class="Up"></path><path d="M1209 236L1208 439" stroke-width="10" stroke="url(#SvgjsLinearGradient1007)" stroke-linecap="round" class="Up"></path><path d="M1279 320L1278 -93" stroke-width="8" stroke="url(#SvgjsLinearGradient1008)" stroke-linecap="round" class="Down"></path><path d="M992 531L991 699" stroke-width="10" stroke="url(#SvgjsLinearGradient1007)" stroke-linecap="round" class="Up"></path><path d="M555 276L554 491" stroke-width="6" stroke="url(#SvgjsLinearGradient1008)" stroke-linecap="round" class="Down"></path><path d="M1132 433L1131 853" stroke-width="6" stroke="url(#SvgjsLinearGradient1008)" stroke-linecap="round" class="Down"></path><path d="M962 116L961 -135" stroke-width="10" stroke="url(#SvgjsLinearGradient1008)" stroke-linecap="round" class="Down"></path><path d="M796 471L795 811" stroke-width="8" stroke="url(#SvgjsLinearGradient1007)" stroke-linecap="round" class="Up"></path><path d="M1216 8L1215 225" stroke-width="6" stroke="url(#SvgjsLinearGradient1008)" stroke-linecap="round" class="Down"></path><path d="M1254 47L1253 -173" stroke-width="10" stroke="url(#SvgjsLinearGradient1008)" stroke-linecap="round" class="Down"></path><path d="M707 200L706 386" stroke-width="6" stroke="url(#SvgjsLinearGradient1007)" stroke-linecap="round" class="Up"></path><path d="M522 490L521 313" stroke-width="6" stroke="url(#SvgjsLinearGradient1008)" stroke-linecap="round" class="Down"></path><path d="M59 448L58 95" stroke-width="10" stroke="url(#SvgjsLinearGradient1007)" stroke-linecap="round" class="Up"></path><path d="M695 295L694 -22" stroke-width="6" stroke="url(#SvgjsLinearGradient1008)" stroke-linecap="round" class="Down"></path><path d="M1163 404L1162 229" stroke-width="8" stroke="url(#SvgjsLinearGradient1008)" stroke-linecap="round" class="Down"></path><path d="M1005 180L1004 -240" stroke-width="8" stroke="url(#SvgjsLinearGradient1007)" stroke-linecap="round" class="Up"></path><path d="M339 368L338 621" stroke-width="8" stroke="url(#SvgjsLinearGradient1007)" stroke-linecap="round" class="Up"></path><path d="M928 22L927 337" stroke-width="8" stroke="url(#SvgjsLinearGradient1008)" stroke-linecap="round" class="Down"></path><path d="M542 410L541 738" stroke-width="6" stroke="url(#SvgjsLinearGradient1007)" stroke-linecap="round" class="Up"></path><path d="M399 20L398 -263" stroke-width="10" stroke="url(#SvgjsLinearGradient1007)" stroke-linecap="round" class="Up"></path><path d="M954 324L953 -89" stroke-width="8" stroke="url(#SvgjsLinearGradient1008)" stroke-linecap="round" class="Down"></path><path d="M1040 10L1039 211" stroke-width="8" stroke="url(#SvgjsLinearGradient1007)" stroke-linecap="round" class="Up"></path><path d="M212 423L211 685" stroke-width="8" stroke="url(#SvgjsLinearGradient1007)" stroke-linecap="round" class="Up"></path><path d="M840 559L839 219" stroke-width="10" stroke="url(#SvgjsLinearGradient1007)" stroke-linecap="round" class="Up"></path><path d="M1362 256L1361 -119" stroke-width="8" stroke="url(#SvgjsLinearGradient1008)" stroke-linecap="round" class="Down"></path><path d="M432 245L431 -8" stroke-width="10" stroke="url(#SvgjsLinearGradient1007)" stroke-linecap="round" class="Up"></path><path d="M1016 163L1015 521" stroke-width="8" stroke="url(#SvgjsLinearGradient1008)" stroke-linecap="round" class="Down"></path></g><defs><mask id="SvgjsMask1006"><rect width="1440" height="560" fill="#ffffff"></rect></mask><linearGradient x1="0%" y1="100%" x2="0%" y2="0%" id="SvgjsLinearGradient1007"><stop stop-color="rgba(77, 111, 220, 0)" offset="0"></stop><stop stop-color="rgba(77, 111, 220, 1)" offset="1"></stop></linearGradient><linearGradient x1="0%" y1="0%" x2="0%" y2="100%" id="SvgjsLinearGradient1008"><stop stop-color="rgba(77, 111, 220, 0)" offset="0"></stop><stop stop-color="rgba(77, 111, 220, 1)" offset="1"></stop></linearGradient></defs></svg>